<mxfile host="Electron" modified="2025-08-13T02:12:23.808Z" agent="Mozilla/5.0 (Windows NT 10.0; Win64; x64) AppleWebKit/537.36 (KHTML, like Gecko) draw.io/22.1.18 Chrome/120.0.6099.199 Electron/28.1.2 Safari/537.36" etag="1jLMHbZvAuc_Awv1Fs6f" version="22.1.18" type="device">
  <diagram name="第 1 页" id="Ecw3SG6RhOeQfS9CpkbD">
    <mxGraphModel dx="1436" dy="844" grid="1" gridSize="10" guides="1" tooltips="1" connect="1" arrows="1" fold="1" page="1" pageScale="1" pageWidth="3300" pageHeight="4681" background="none" math="0" shadow="0">
      <root>
        <mxCell id="0" />
        <mxCell id="1" parent="0" />
        <mxCell id="CC6SgN7fPdwLH8gO0d15-1" value="&lt;font color=&quot;#a9c4eb&quot;&gt;内存池&lt;/font&gt;" style="ellipse;whiteSpace=wrap;html=1;hachureGap=4;fontFamily=Architects Daughter;fontSource=https%3A%2F%2Ffonts.googleapis.com%2Fcss%3Ffamily%3DArchitects%2BDaughter;fontSize=20;rounded=0;" parent="1" vertex="1">
          <mxGeometry x="80" y="140" width="120" height="80" as="geometry" />
        </mxCell>
        <mxCell id="CC6SgN7fPdwLH8gO0d15-3" value="&lt;font color=&quot;#a9c4eb&quot;&gt;杭哥内存池讲解&lt;/font&gt;" style="text;html=1;align=center;verticalAlign=middle;resizable=0;points=[];autosize=1;strokeColor=none;fillColor=none;fontSize=20;fontFamily=Architects Daughter;rounded=0;sketch=1;curveFitting=1;jiggle=2;" parent="1" vertex="1">
          <mxGeometry x="150" y="30" width="160" height="40" as="geometry" />
        </mxCell>
        <mxCell id="CC6SgN7fPdwLH8gO0d15-25" value="&lt;font color=&quot;#cc6600&quot;&gt;定长内存池设计&lt;/font&gt;" style="shape=process;whiteSpace=wrap;html=1;backgroundOutline=1;rounded=0;hachureGap=4;strokeColor=#FFFFFF;fontFamily=Architects Daughter;fontSource=https%3A%2F%2Ffonts.googleapis.com%2Fcss%3Ffamily%3DArchitects%2BDaughter;fontSize=20;fontColor=#ffffff;fillColor=#a0522d;glass=0;sketch=1;curveFitting=1;jiggle=2;" parent="1" vertex="1">
          <mxGeometry x="340" y="130" width="290" height="60" as="geometry" />
        </mxCell>
        <mxCell id="CC6SgN7fPdwLH8gO0d15-28" style="edgeStyle=orthogonalEdgeStyle;rounded=0;hachureGap=4;orthogonalLoop=1;jettySize=auto;html=1;fontFamily=Architects Daughter;fontSource=https%3A%2F%2Ffonts.googleapis.com%2Fcss%3Ffamily%3DArchitects%2BDaughter;fontSize=20;fontColor=#ffffff;" parent="1" source="CC6SgN7fPdwLH8gO0d15-26" edge="1">
          <mxGeometry relative="1" as="geometry">
            <mxPoint x="360" y="272.9999999999999" as="targetPoint" />
          </mxGeometry>
        </mxCell>
        <mxCell id="CC6SgN7fPdwLH8gO0d15-26" value="&lt;font face=&quot;Garamond&quot;&gt;char*&amp;nbsp; _memory&lt;/font&gt;" style="text;html=1;align=center;verticalAlign=middle;resizable=0;points=[];autosize=1;strokeColor=none;fillColor=none;fontSize=20;fontFamily=Architects Daughter;fontColor=#ffffff;rounded=0;sketch=1;curveFitting=1;jiggle=2;" parent="1" vertex="1">
          <mxGeometry x="165" y="253" width="150" height="40" as="geometry" />
        </mxCell>
        <mxCell id="CC6SgN7fPdwLH8gO0d15-29" value="" style="rounded=0;whiteSpace=wrap;html=1;fillColor=#76608a;fontColor=#ffffff;strokeColor=#432D57;" parent="1" vertex="1">
          <mxGeometry x="370" y="248" width="600" height="50" as="geometry" />
        </mxCell>
        <mxCell id="CC6SgN7fPdwLH8gO0d15-31" value="&lt;font color=&quot;#a9c4eb&quot;&gt;固定大小的内存申请释放需求特点&lt;/font&gt;" style="text;html=1;align=center;verticalAlign=middle;resizable=0;points=[];autosize=1;strokeColor=none;fillColor=none;rounded=0;sketch=1;curveFitting=1;jiggle=2;" parent="1" vertex="1">
          <mxGeometry x="670" y="130" width="200" height="30" as="geometry" />
        </mxCell>
        <mxCell id="CC6SgN7fPdwLH8gO0d15-32" value="&lt;font color=&quot;#a9c4eb&quot;&gt;1、性能达到极致&lt;br&gt;2、不考虑内存碎片等问题&lt;/font&gt;" style="text;html=1;align=left;verticalAlign=middle;resizable=0;points=[];autosize=1;strokeColor=none;fillColor=none;rounded=0;sketch=1;curveFitting=1;jiggle=2;" parent="1" vertex="1">
          <mxGeometry x="680" y="163" width="160" height="40" as="geometry" />
        </mxCell>
        <mxCell id="CC6SgN7fPdwLH8gO0d15-33" value="&lt;font style=&quot;font-size: 20px;&quot; face=&quot;Garamond&quot;&gt;void* _freeList&lt;/font&gt;" style="text;html=1;align=center;verticalAlign=middle;resizable=0;points=[];autosize=1;strokeColor=none;fillColor=none;rounded=0;sketch=1;curveFitting=1;jiggle=2;" parent="1" vertex="1">
          <mxGeometry x="105" y="400" width="140" height="40" as="geometry" />
        </mxCell>
        <mxCell id="CC6SgN7fPdwLH8gO0d15-37" style="edgeStyle=orthogonalEdgeStyle;rounded=0;hachureGap=4;orthogonalLoop=1;jettySize=auto;html=1;fontFamily=Architects Daughter;fontSource=https%3A%2F%2Ffonts.googleapis.com%2Fcss%3Ffamily%3DArchitects%2BDaughter;fontSize=20;fontColor=#ffffff;" parent="1" edge="1">
          <mxGeometry relative="1" as="geometry">
            <mxPoint x="285" y="419.57999999999987" as="targetPoint" />
            <mxPoint x="240" y="419.58" as="sourcePoint" />
          </mxGeometry>
        </mxCell>
        <mxCell id="CC6SgN7fPdwLH8gO0d15-45" style="edgeStyle=orthogonalEdgeStyle;hachureGap=4;orthogonalLoop=1;jettySize=auto;html=1;fontFamily=Architects Daughter;fontSource=https%3A%2F%2Ffonts.googleapis.com%2Fcss%3Ffamily%3DArchitects%2BDaughter;fontSize=16;" parent="1" source="CC6SgN7fPdwLH8gO0d15-38" target="CC6SgN7fPdwLH8gO0d15-39" edge="1">
          <mxGeometry relative="1" as="geometry" />
        </mxCell>
        <mxCell id="CC6SgN7fPdwLH8gO0d15-38" value="" style="rounded=0;whiteSpace=wrap;html=1;" parent="1" vertex="1">
          <mxGeometry x="300" y="390" width="120" height="60" as="geometry" />
        </mxCell>
        <mxCell id="CC6SgN7fPdwLH8gO0d15-47" style="edgeStyle=orthogonalEdgeStyle;hachureGap=4;orthogonalLoop=1;jettySize=auto;html=1;entryX=0;entryY=0.5;entryDx=0;entryDy=0;fontFamily=Architects Daughter;fontSource=https%3A%2F%2Ffonts.googleapis.com%2Fcss%3Ffamily%3DArchitects%2BDaughter;fontSize=16;" parent="1" source="CC6SgN7fPdwLH8gO0d15-39" target="CC6SgN7fPdwLH8gO0d15-40" edge="1">
          <mxGeometry relative="1" as="geometry" />
        </mxCell>
        <mxCell id="CC6SgN7fPdwLH8gO0d15-39" value="&lt;hr&gt;" style="rounded=0;whiteSpace=wrap;html=1;" parent="1" vertex="1">
          <mxGeometry x="470" y="390" width="120" height="60" as="geometry" />
        </mxCell>
        <mxCell id="CC6SgN7fPdwLH8gO0d15-48" style="edgeStyle=orthogonalEdgeStyle;hachureGap=4;orthogonalLoop=1;jettySize=auto;html=1;entryX=0;entryY=0.5;entryDx=0;entryDy=0;fontFamily=Architects Daughter;fontSource=https%3A%2F%2Ffonts.googleapis.com%2Fcss%3Ffamily%3DArchitects%2BDaughter;fontSize=16;" parent="1" source="CC6SgN7fPdwLH8gO0d15-40" target="CC6SgN7fPdwLH8gO0d15-41" edge="1">
          <mxGeometry relative="1" as="geometry" />
        </mxCell>
        <mxCell id="CC6SgN7fPdwLH8gO0d15-40" value="&lt;hr&gt;" style="rounded=0;whiteSpace=wrap;html=1;" parent="1" vertex="1">
          <mxGeometry x="650" y="390" width="120" height="60" as="geometry" />
        </mxCell>
        <mxCell id="CC6SgN7fPdwLH8gO0d15-51" style="edgeStyle=orthogonalEdgeStyle;hachureGap=4;orthogonalLoop=1;jettySize=auto;html=1;fontFamily=Architects Daughter;fontSource=https%3A%2F%2Ffonts.googleapis.com%2Fcss%3Ffamily%3DArchitects%2BDaughter;fontSize=16;" parent="1" source="CC6SgN7fPdwLH8gO0d15-41" edge="1">
          <mxGeometry relative="1" as="geometry">
            <mxPoint x="1010" y="420.0000000000001" as="targetPoint" />
          </mxGeometry>
        </mxCell>
        <mxCell id="CC6SgN7fPdwLH8gO0d15-41" value="&lt;hr&gt;" style="rounded=0;whiteSpace=wrap;html=1;" parent="1" vertex="1">
          <mxGeometry x="840" y="390" width="120" height="60" as="geometry" />
        </mxCell>
        <mxCell id="CC6SgN7fPdwLH8gO0d15-53" value="&lt;font face=&quot;Georgia&quot;&gt;NULL&lt;/font&gt;" style="text;html=1;align=center;verticalAlign=middle;resizable=0;points=[];autosize=1;strokeColor=none;fillColor=none;fontSize=20;fontFamily=Architects Daughter;fontColor=#CC6600;" parent="1" vertex="1">
          <mxGeometry x="1015" y="400" width="80" height="40" as="geometry" />
        </mxCell>
        <mxCell id="CC6SgN7fPdwLH8gO0d15-54" value="&lt;font style=&quot;font-size: 14px;&quot; face=&quot;Garamond&quot;&gt;_freeList 前 4或8 个字节存下一个节点的地址&lt;/font&gt;" style="text;html=1;align=center;verticalAlign=middle;resizable=0;points=[];autosize=1;strokeColor=none;fillColor=none;fontSize=20;fontFamily=Architects Daughter;fontColor=#CC6600;" parent="1" vertex="1">
          <mxGeometry x="25" y="350" width="290" height="40" as="geometry" />
        </mxCell>
        <mxCell id="CC6SgN7fPdwLH8gO0d15-56" style="edgeStyle=orthogonalEdgeStyle;hachureGap=4;orthogonalLoop=1;jettySize=auto;html=1;fontFamily=Architects Daughter;fontSource=https%3A%2F%2Ffonts.googleapis.com%2Fcss%3Ffamily%3DArchitects%2BDaughter;fontSize=16;" parent="1" source="CC6SgN7fPdwLH8gO0d15-55" edge="1">
          <mxGeometry relative="1" as="geometry">
            <mxPoint x="290" y="540" as="targetPoint" />
          </mxGeometry>
        </mxCell>
        <mxCell id="CC6SgN7fPdwLH8gO0d15-55" value="&lt;font style=&quot;font-size: 20px;&quot; face=&quot;Garamond&quot;&gt;void* _freeList&lt;/font&gt;" style="text;html=1;align=center;verticalAlign=middle;resizable=0;points=[];autosize=1;strokeColor=none;fillColor=none;rounded=0;sketch=1;curveFitting=1;jiggle=2;" parent="1" vertex="1">
          <mxGeometry x="105" y="520" width="140" height="40" as="geometry" />
        </mxCell>
        <mxCell id="CC6SgN7fPdwLH8gO0d15-57" value="&lt;font face=&quot;Georgia&quot;&gt;NULL&lt;/font&gt;" style="text;html=1;align=center;verticalAlign=middle;resizable=0;points=[];autosize=1;strokeColor=none;fillColor=none;fontSize=20;fontFamily=Architects Daughter;fontColor=#CC6600;" parent="1" vertex="1">
          <mxGeometry x="295" y="520" width="80" height="40" as="geometry" />
        </mxCell>
        <mxCell id="eSYcwo6YyWBUjuSrye-T-6" style="edgeStyle=orthogonalEdgeStyle;rounded=0;hachureGap=4;orthogonalLoop=1;jettySize=auto;html=1;entryX=0;entryY=0.5;entryDx=0;entryDy=0;fontFamily=Architects Daughter;fontSource=https%3A%2F%2Ffonts.googleapis.com%2Fcss%3Ffamily%3DArchitects%2BDaughter;fontSize=16;" edge="1" parent="1" source="CC6SgN7fPdwLH8gO0d15-58" target="CC6SgN7fPdwLH8gO0d15-60">
          <mxGeometry relative="1" as="geometry" />
        </mxCell>
        <mxCell id="CC6SgN7fPdwLH8gO0d15-58" value="&lt;font style=&quot;font-size: 20px;&quot; face=&quot;Garamond&quot;&gt;void* _freeList&lt;/font&gt;" style="text;html=1;align=center;verticalAlign=middle;resizable=0;points=[];autosize=1;strokeColor=none;fillColor=none;rounded=0;sketch=1;curveFitting=1;jiggle=2;" parent="1" vertex="1">
          <mxGeometry x="120" y="620" width="140" height="40" as="geometry" />
        </mxCell>
        <mxCell id="CC6SgN7fPdwLH8gO0d15-59" value="&lt;font color=&quot;#7ea6e0&quot; style=&quot;font-size: 12px;&quot; face=&quot;Garamond&quot;&gt;由于链表尾插需要依次遍历整个链表，因此采用头插的方式&lt;/font&gt;" style="text;html=1;align=center;verticalAlign=middle;resizable=0;points=[];autosize=1;strokeColor=none;fillColor=none;fontSize=20;fontFamily=Architects Daughter;" parent="1" vertex="1">
          <mxGeometry x="285" y="560" width="340" height="40" as="geometry" />
        </mxCell>
        <mxCell id="eSYcwo6YyWBUjuSrye-T-5" style="edgeStyle=orthogonalEdgeStyle;rounded=0;hachureGap=4;orthogonalLoop=1;jettySize=auto;html=1;fontFamily=Architects Daughter;fontSource=https%3A%2F%2Ffonts.googleapis.com%2Fcss%3Ffamily%3DArchitects%2BDaughter;fontSize=16;" edge="1" parent="1" source="CC6SgN7fPdwLH8gO0d15-60" target="CC6SgN7fPdwLH8gO0d15-63">
          <mxGeometry relative="1" as="geometry" />
        </mxCell>
        <mxCell id="CC6SgN7fPdwLH8gO0d15-60" value="" style="rounded=0;whiteSpace=wrap;html=1;" parent="1" vertex="1">
          <mxGeometry x="340" y="610" width="120" height="60" as="geometry" />
        </mxCell>
        <mxCell id="CC6SgN7fPdwLH8gO0d15-63" value="&lt;font face=&quot;Georgia&quot;&gt;NULL&lt;/font&gt;" style="text;html=1;align=center;verticalAlign=middle;resizable=0;points=[];autosize=1;strokeColor=none;fillColor=none;fontSize=20;fontFamily=Architects Daughter;fontColor=#CC6600;" parent="1" vertex="1">
          <mxGeometry x="550" y="620" width="80" height="40" as="geometry" />
        </mxCell>
        <mxCell id="CC6SgN7fPdwLH8gO0d15-73" style="edgeStyle=orthogonalEdgeStyle;hachureGap=4;orthogonalLoop=1;jettySize=auto;html=1;entryX=0.456;entryY=1.056;entryDx=0;entryDy=0;entryPerimeter=0;fontFamily=Architects Daughter;fontSource=https%3A%2F%2Ffonts.googleapis.com%2Fcss%3Ffamily%3DArchitects%2BDaughter;fontSize=16;" parent="1" source="CC6SgN7fPdwLH8gO0d15-64" target="CC6SgN7fPdwLH8gO0d15-70" edge="1">
          <mxGeometry relative="1" as="geometry" />
        </mxCell>
        <mxCell id="CC6SgN7fPdwLH8gO0d15-64" value="" style="rounded=0;whiteSpace=wrap;html=1;" parent="1" vertex="1">
          <mxGeometry x="230" y="830" width="120" height="60" as="geometry" />
        </mxCell>
        <mxCell id="CC6SgN7fPdwLH8gO0d15-72" style="edgeStyle=orthogonalEdgeStyle;hachureGap=4;orthogonalLoop=1;jettySize=auto;html=1;entryX=0;entryY=0.75;entryDx=0;entryDy=0;fontFamily=Architects Daughter;fontSource=https%3A%2F%2Ffonts.googleapis.com%2Fcss%3Ffamily%3DArchitects%2BDaughter;fontSize=16;" parent="1" source="CC6SgN7fPdwLH8gO0d15-68" target="CC6SgN7fPdwLH8gO0d15-64" edge="1">
          <mxGeometry relative="1" as="geometry" />
        </mxCell>
        <mxCell id="CC6SgN7fPdwLH8gO0d15-68" value="&lt;font style=&quot;font-size: 20px;&quot; face=&quot;Garamond&quot;&gt;void* _freeList&lt;/font&gt;" style="text;html=1;align=center;verticalAlign=middle;resizable=0;points=[];autosize=1;strokeColor=none;fillColor=none;rounded=0;sketch=1;curveFitting=1;jiggle=2;" parent="1" vertex="1">
          <mxGeometry x="120" y="730" width="140" height="40" as="geometry" />
        </mxCell>
        <mxCell id="eSYcwo6YyWBUjuSrye-T-8" style="edgeStyle=orthogonalEdgeStyle;rounded=0;hachureGap=4;orthogonalLoop=1;jettySize=auto;html=1;fontFamily=Architects Daughter;fontSource=https%3A%2F%2Ffonts.googleapis.com%2Fcss%3Ffamily%3DArchitects%2BDaughter;fontSize=16;" edge="1" parent="1" source="CC6SgN7fPdwLH8gO0d15-70" target="CC6SgN7fPdwLH8gO0d15-71">
          <mxGeometry relative="1" as="geometry" />
        </mxCell>
        <mxCell id="CC6SgN7fPdwLH8gO0d15-70" value="" style="rounded=0;whiteSpace=wrap;html=1;" parent="1" vertex="1">
          <mxGeometry x="330" y="720" width="120" height="60" as="geometry" />
        </mxCell>
        <mxCell id="CC6SgN7fPdwLH8gO0d15-71" value="&lt;font face=&quot;Georgia&quot;&gt;NULL&lt;/font&gt;" style="text;html=1;align=center;verticalAlign=middle;resizable=0;points=[];autosize=1;strokeColor=none;fillColor=none;fontSize=20;fontFamily=Architects Daughter;fontColor=#CC6600;" parent="1" vertex="1">
          <mxGeometry x="505" y="730" width="80" height="40" as="geometry" />
        </mxCell>
        <mxCell id="CC6SgN7fPdwLH8gO0d15-74" value="&lt;font color=&quot;#cc6600&quot; face=&quot;Garamond&quot; style=&quot;font-size: 20px;&quot;&gt;obj&lt;/font&gt;" style="text;html=1;align=center;verticalAlign=middle;resizable=0;points=[];autosize=1;strokeColor=none;fillColor=none;fontSize=20;fontFamily=Architects Daughter;" parent="1" vertex="1">
          <mxGeometry x="250" y="890" width="50" height="40" as="geometry" />
        </mxCell>
        <mxCell id="CC6SgN7fPdwLH8gO0d15-76" value="&lt;font color=&quot;#ff3333&quot; data-font-src=&quot;https://fonts.googleapis.com/css?family=Garamond&quot; face=&quot;Garamond&quot;&gt;优先使用还回来的内存块对象&lt;/font&gt;" style="text;html=1;align=center;verticalAlign=middle;resizable=0;points=[];autosize=1;strokeColor=none;fillColor=none;fontSize=20;fontFamily=Architects Daughter;" parent="1" vertex="1">
          <mxGeometry x="435" y="810" width="280" height="40" as="geometry" />
        </mxCell>
        <mxCell id="g5zG8YYZYsl8CWrzyVVc-3" value="高并发内存池整体框架设计" style="text;html=1;align=center;verticalAlign=middle;resizable=0;points=[];autosize=1;strokeColor=none;fillColor=none;fontSize=20;fontFamily=Architects Daughter;" parent="1" vertex="1">
          <mxGeometry x="142.5" y="940" width="260" height="40" as="geometry" />
        </mxCell>
        <mxCell id="g5zG8YYZYsl8CWrzyVVc-19" style="edgeStyle=orthogonalEdgeStyle;rounded=0;hachureGap=4;orthogonalLoop=1;jettySize=auto;html=1;entryX=0.069;entryY=0.011;entryDx=0;entryDy=0;entryPerimeter=0;fontFamily=Architects Daughter;fontSource=https%3A%2F%2Ffonts.googleapis.com%2Fcss%3Ffamily%3DArchitects%2BDaughter;fontSize=16;strokeWidth=3;" parent="1" source="g5zG8YYZYsl8CWrzyVVc-4" target="g5zG8YYZYsl8CWrzyVVc-9" edge="1">
          <mxGeometry relative="1" as="geometry" />
        </mxCell>
        <mxCell id="g5zG8YYZYsl8CWrzyVVc-4" value="&lt;font color=&quot;#000000&quot;&gt;thread cache&lt;/font&gt;" style="rounded=1;whiteSpace=wrap;html=1;hachureGap=4;fontFamily=Architects Daughter;fontSource=https%3A%2F%2Ffonts.googleapis.com%2Fcss%3Ffamily%3DArchitects%2BDaughter;fontSize=20;fillColor=#A9C4EB;fillStyle=auto;gradientColor=#A9C4EB;" parent="1" vertex="1">
          <mxGeometry x="710" y="950" width="130" height="60" as="geometry" />
        </mxCell>
        <mxCell id="g5zG8YYZYsl8CWrzyVVc-20" style="edgeStyle=orthogonalEdgeStyle;rounded=0;hachureGap=4;orthogonalLoop=1;jettySize=auto;html=1;fontFamily=Architects Daughter;fontSource=https%3A%2F%2Ffonts.googleapis.com%2Fcss%3Ffamily%3DArchitects%2BDaughter;fontSize=16;strokeWidth=3;" parent="1" source="g5zG8YYZYsl8CWrzyVVc-6" edge="1">
          <mxGeometry relative="1" as="geometry">
            <mxPoint x="965" y="1070" as="targetPoint" />
          </mxGeometry>
        </mxCell>
        <mxCell id="g5zG8YYZYsl8CWrzyVVc-6" value="&lt;font color=&quot;#000000&quot;&gt;thread cache&lt;br&gt;&lt;/font&gt;" style="rounded=1;whiteSpace=wrap;html=1;hachureGap=4;fontFamily=Architects Daughter;fontSource=https%3A%2F%2Ffonts.googleapis.com%2Fcss%3Ffamily%3DArchitects%2BDaughter;fontSize=20;gradientColor=#A9C4EB;fillColor=#A9C4EB;" parent="1" vertex="1">
          <mxGeometry x="900" y="970" width="130" height="60" as="geometry" />
        </mxCell>
        <mxCell id="g5zG8YYZYsl8CWrzyVVc-9" value="&lt;font color=&quot;#000000&quot;&gt;central cache&lt;/font&gt;" style="rounded=1;whiteSpace=wrap;html=1;hachureGap=4;fontFamily=Architects Daughter;fontSource=https%3A%2F%2Ffonts.googleapis.com%2Fcss%3Ffamily%3DArchitects%2BDaughter;fontSize=20;gradientColor=#CC6600;fillColor=#CC6600;" parent="1" vertex="1">
          <mxGeometry x="845" y="1080" width="250" height="60" as="geometry" />
        </mxCell>
        <mxCell id="eSYcwo6YyWBUjuSrye-T-12" style="edgeStyle=orthogonalEdgeStyle;rounded=0;hachureGap=4;orthogonalLoop=1;jettySize=auto;html=1;fontFamily=Architects Daughter;fontSource=https%3A%2F%2Ffonts.googleapis.com%2Fcss%3Ffamily%3DArchitects%2BDaughter;fontSize=16;" edge="1" parent="1" source="g5zG8YYZYsl8CWrzyVVc-10" target="g5zG8YYZYsl8CWrzyVVc-30">
          <mxGeometry relative="1" as="geometry" />
        </mxCell>
        <mxCell id="g5zG8YYZYsl8CWrzyVVc-10" value="&lt;font color=&quot;#000000&quot;&gt;page cache&lt;/font&gt;" style="rounded=1;whiteSpace=wrap;html=1;hachureGap=4;fontFamily=Architects Daughter;fontSource=https%3A%2F%2Ffonts.googleapis.com%2Fcss%3Ffamily%3DArchitects%2BDaughter;fontSize=20;gradientColor=#80FF00;fillColor=#80FF00;" parent="1" vertex="1">
          <mxGeometry x="845" y="1200" width="250" height="60" as="geometry" />
        </mxCell>
        <mxCell id="g5zG8YYZYsl8CWrzyVVc-11" value="&lt;font color=&quot;#a9c4eb&quot; style=&quot;font-size: 14px;&quot;&gt;项目原型是 tcmalloc就是在多线程高并发场景更胜一筹&lt;/font&gt;" style="text;html=1;align=center;verticalAlign=middle;resizable=0;points=[];autosize=1;strokeColor=none;fillColor=none;fontSize=20;fontFamily=Architects Daughter;" parent="1" vertex="1">
          <mxGeometry x="230" y="980" width="360" height="40" as="geometry" />
        </mxCell>
        <mxCell id="g5zG8YYZYsl8CWrzyVVc-12" value="&lt;font style=&quot;font-size: 18px;&quot;&gt;考虑一下几个方面的问题&lt;/font&gt;" style="text;html=1;align=center;verticalAlign=middle;resizable=0;points=[];autosize=1;strokeColor=none;fillColor=none;fontSize=20;fontFamily=Architects Daughter;" parent="1" vertex="1">
          <mxGeometry x="125" y="1060" width="220" height="40" as="geometry" />
        </mxCell>
        <mxCell id="g5zG8YYZYsl8CWrzyVVc-13" value="&lt;font style=&quot;font-size: 18px;&quot; color=&quot;#7ea6e0&quot;&gt;1、 性能问题&lt;br&gt;2、多线程环境下, 锁竞争问题&lt;br&gt;3、内存碎片问题&lt;/font&gt;" style="text;html=1;align=left;verticalAlign=middle;resizable=0;points=[];autosize=1;strokeColor=none;fillColor=none;fontSize=20;fontFamily=Architects Daughter;" parent="1" vertex="1">
          <mxGeometry x="200" y="1100" width="260" height="90" as="geometry" />
        </mxCell>
        <mxCell id="g5zG8YYZYsl8CWrzyVVc-15" value="&lt;span style=&quot;color: rgb(240, 240, 240); font-size: 20px; font-style: normal; font-variant-ligatures: normal; font-variant-caps: normal; font-weight: 400; letter-spacing: normal; orphans: 2; text-align: center; text-indent: 0px; text-transform: none; widows: 2; word-spacing: 0px; -webkit-text-stroke-width: 0px; background-color: rgb(42, 37, 47); text-decoration-thickness: initial; text-decoration-style: initial; text-decoration-color: initial; float: none; display: inline !important;&quot;&gt;&lt;font face=&quot;Georgia&quot;&gt;thread2&lt;/font&gt;&lt;/span&gt;" style="text;whiteSpace=wrap;html=1;fontSize=20;fontFamily=Architects Daughter;" parent="1" vertex="1">
          <mxGeometry x="930" y="920" width="100" height="50" as="geometry" />
        </mxCell>
        <mxCell id="g5zG8YYZYsl8CWrzyVVc-16" value="&lt;span style=&quot;color: rgb(240, 240, 240); font-size: 20px; font-style: normal; font-variant-ligatures: normal; font-variant-caps: normal; font-weight: 400; letter-spacing: normal; orphans: 2; text-align: center; text-indent: 0px; text-transform: none; widows: 2; word-spacing: 0px; -webkit-text-stroke-width: 0px; background-color: rgb(42, 37, 47); text-decoration-thickness: initial; text-decoration-style: initial; text-decoration-color: initial; float: none; display: inline !important;&quot;&gt;&lt;font face=&quot;Georgia&quot;&gt;thread3&lt;/font&gt;&lt;/span&gt;" style="text;whiteSpace=wrap;html=1;fontSize=20;fontFamily=Architects Daughter;" parent="1" vertex="1">
          <mxGeometry x="1140" y="910" width="100" height="50" as="geometry" />
        </mxCell>
        <mxCell id="g5zG8YYZYsl8CWrzyVVc-21" style="edgeStyle=orthogonalEdgeStyle;rounded=0;hachureGap=4;orthogonalLoop=1;jettySize=auto;html=1;entryX=0.915;entryY=-0.022;entryDx=0;entryDy=0;entryPerimeter=0;fontFamily=Architects Daughter;fontSource=https%3A%2F%2Ffonts.googleapis.com%2Fcss%3Ffamily%3DArchitects%2BDaughter;fontSize=16;strokeWidth=3;" parent="1" source="g5zG8YYZYsl8CWrzyVVc-17" target="g5zG8YYZYsl8CWrzyVVc-9" edge="1">
          <mxGeometry relative="1" as="geometry" />
        </mxCell>
        <mxCell id="eSYcwo6YyWBUjuSrye-T-10" style="edgeStyle=orthogonalEdgeStyle;rounded=0;hachureGap=4;orthogonalLoop=1;jettySize=auto;html=1;fontFamily=Architects Daughter;fontSource=https%3A%2F%2Ffonts.googleapis.com%2Fcss%3Ffamily%3DArchitects%2BDaughter;fontSize=16;" edge="1" parent="1" source="g5zG8YYZYsl8CWrzyVVc-17" target="g5zG8YYZYsl8CWrzyVVc-28">
          <mxGeometry relative="1" as="geometry" />
        </mxCell>
        <mxCell id="g5zG8YYZYsl8CWrzyVVc-17" value="&lt;font color=&quot;#000000&quot;&gt;thread cache&lt;/font&gt;" style="rounded=1;whiteSpace=wrap;html=1;hachureGap=4;fontFamily=Architects Daughter;fontSource=https%3A%2F%2Ffonts.googleapis.com%2Fcss%3Ffamily%3DArchitects%2BDaughter;fontSize=20;gradientColor=#A9C4EB;fillColor=#A9C4EB;" parent="1" vertex="1">
          <mxGeometry x="1120" y="960" width="130" height="60" as="geometry" />
        </mxCell>
        <mxCell id="g5zG8YYZYsl8CWrzyVVc-25" value="" style="shape=flexArrow;endArrow=classic;startArrow=classic;html=1;rounded=1;hachureGap=4;fontFamily=Architects Daughter;fontSource=https%3A%2F%2Ffonts.googleapis.com%2Fcss%3Ffamily%3DArchitects%2BDaughter;fontSize=16;" parent="1" edge="1">
          <mxGeometry width="100" height="100" relative="1" as="geometry">
            <mxPoint x="965" y="1200" as="sourcePoint" />
            <mxPoint x="964.5" y="1140" as="targetPoint" />
            <Array as="points">
              <mxPoint x="964.5" y="1170" />
            </Array>
          </mxGeometry>
        </mxCell>
        <mxCell id="g5zG8YYZYsl8CWrzyVVc-28" value="&lt;font face=&quot;Georgia&quot; style=&quot;font-size: 18px;&quot;&gt;1、thread cache: 线程缓存时每个线程独有的, 用于小于 256 KB的内存的分配, 线程从这里申请内存不需要加锁,每个线程独享一个cache&lt;/font&gt;" style="text;html=1;align=center;verticalAlign=middle;resizable=0;points=[];autosize=1;strokeColor=none;fillColor=none;fontSize=20;fontFamily=Architects Daughter;" parent="1" vertex="1">
          <mxGeometry x="1370" y="950" width="1080" height="40" as="geometry" />
        </mxCell>
        <mxCell id="g5zG8YYZYsl8CWrzyVVc-29" value="&lt;h6 style=&quot;line-height: 120%;&quot;&gt;&lt;span style=&quot;font-weight: normal;&quot;&gt;&lt;font face=&quot;Georgia&quot; style=&quot;font-size: 18px;&quot;&gt;&lt;span style=&quot;background-color: initial;&quot;&gt;&lt;font style=&quot;&quot;&gt;2、central cache: 中心缓存时所有线程所共享, thread cache 是按需从 central cache中获取的对象, central cache 合适的时机回收&lt;br&gt;&lt;/font&gt;&lt;/span&gt;&lt;span style=&quot;background-color: initial;&quot;&gt;&amp;nbsp;thread cache中的对象, 避免一个线程占用太多的内存,&lt;/span&gt;&lt;span style=&quot;background-color: initial;&quot;&gt;而其他线程的内存吃紧,达到内存分配在多个线程中更均衡的按需调度的目的。&lt;br&gt;&lt;/span&gt;&lt;span style=&quot;background-color: initial;&quot;&gt;&amp;nbsp;central cache 是存在竞争的, 所以从这里取内存对象是需要加锁的, 首先这里用的是桶锁,其次只有thread cache&lt;/span&gt;&lt;span style=&quot;background-color: initial;&quot;&gt;没有内存对象时才会找 central cache,&lt;br&gt;&lt;/span&gt;&lt;span style=&quot;background-color: initial;&quot;&gt;&amp;nbsp;所以这里竞争不会很激烈&lt;/span&gt;&lt;/font&gt;&lt;/span&gt;&lt;/h6&gt;" style="text;html=1;align=left;verticalAlign=middle;resizable=0;points=[];autosize=1;strokeColor=none;fillColor=none;fontSize=20;fontFamily=Architects Daughter;" parent="1" vertex="1">
          <mxGeometry x="1360" y="1040" width="1180" height="150" as="geometry" />
        </mxCell>
        <mxCell id="g5zG8YYZYsl8CWrzyVVc-30" value="&lt;div style=&quot;text-align: left;&quot;&gt;&lt;span style=&quot;background-color: initial;&quot;&gt;&lt;font face=&quot;Georgia&quot; style=&quot;font-size: 18px;&quot;&gt;3、page cache: 页缓存实在 central cache 缓存上层的缓存，存储的内存是以页为单位存储及分配的，&lt;/font&gt;&lt;/span&gt;&lt;/div&gt;&lt;div style=&quot;text-align: left;&quot;&gt;&lt;span style=&quot;background-color: initial;&quot;&gt;&lt;font face=&quot;Georgia&quot; style=&quot;font-size: 18px;&quot;&gt;central cache没有内存对象时，从 page cache 分配出一定数量的 page，并切割成定长大小的小块内存，&lt;/font&gt;&lt;/span&gt;&lt;/div&gt;&lt;div style=&quot;text-align: left;&quot;&gt;&lt;span style=&quot;background-color: initial;&quot;&gt;&lt;font face=&quot;Georgia&quot; style=&quot;font-size: 18px;&quot;&gt;分配给 central cache。 当一个 span的几个跨度页的对象都回收以后， page cache会回收central cache&lt;/font&gt;&lt;/span&gt;&lt;/div&gt;&lt;div style=&quot;text-align: left;&quot;&gt;&lt;span style=&quot;background-color: initial;&quot;&gt;&lt;font face=&quot;Georgia&quot; style=&quot;font-size: 18px;&quot;&gt;满足条件的 span对象，并且合并相邻的也，组成更大的页，缓解内存碎片问题。&lt;/font&gt;&lt;/span&gt;&lt;/div&gt;&lt;div style=&quot;text-align: left;&quot;&gt;&lt;span style=&quot;background-color: initial;&quot;&gt;&lt;font face=&quot;Georgia&quot; style=&quot;font-size: 18px;&quot;&gt;&amp;nbsp;&amp;nbsp;&lt;/font&gt;&lt;/span&gt;&lt;/div&gt;" style="text;html=1;align=center;verticalAlign=middle;resizable=0;points=[];autosize=1;strokeColor=none;fillColor=none;fontSize=20;fontFamily=Architects Daughter;" parent="1" vertex="1">
          <mxGeometry x="1460" y="1210" width="840" height="130" as="geometry" />
        </mxCell>
        <mxCell id="g5zG8YYZYsl8CWrzyVVc-31" value="&lt;font face=&quot;Georgia&quot; color=&quot;#80ff00&quot;&gt;高并发内存池 -- thread cache&lt;/font&gt;" style="whiteSpace=wrap;html=1;hachureGap=4;fontFamily=Architects Daughter;fontSource=https%3A%2F%2Ffonts.googleapis.com%2Fcss%3Ffamily%3DArchitects%2BDaughter;fontSize=20;rounded=1;" parent="1" vertex="1">
          <mxGeometry x="175" y="1500" width="900" height="60" as="geometry" />
        </mxCell>
        <mxCell id="g5zG8YYZYsl8CWrzyVVc-32" value="8Byte&lt;br&gt;&lt;br&gt;16Byte&lt;br&gt;&lt;br&gt;24Byte&lt;br&gt;&lt;br&gt;........&lt;br&gt;&lt;br&gt;&lt;br&gt;&lt;br&gt;&lt;br&gt;&lt;br&gt;&lt;br&gt;&lt;br&gt;&lt;br&gt;&lt;br&gt;&lt;br&gt;&lt;br&gt;256 KB" style="rounded=1;whiteSpace=wrap;html=1;hachureGap=4;fontFamily=Architects Daughter;fontSource=https%3A%2F%2Ffonts.googleapis.com%2Fcss%3Ffamily%3DArchitects%2BDaughter;fontSize=20;gradientColor=#7EA6E0;fillColor=#7EA6E0;" parent="1" vertex="1">
          <mxGeometry x="175" y="1640" width="85" height="490" as="geometry" />
        </mxCell>
        <mxCell id="g5zG8YYZYsl8CWrzyVVc-33" value="&lt;font color=&quot;#7ea6e0&quot; style=&quot;font-size: 14px;&quot;&gt;thread cache 是哈希桶结构, 每个桶是一个按桶位置映射大小的内存对象的自由链表。每个线程都有一个thread cache 对象,&lt;br&gt;这样每个在这里获取对象和释放对象是无锁的。&lt;/font&gt;" style="text;html=1;align=center;verticalAlign=middle;resizable=0;points=[];autosize=1;strokeColor=none;fillColor=none;fontSize=20;fontFamily=Architects Daughter;" parent="1" vertex="1">
          <mxGeometry x="350" y="1570" width="790" height="60" as="geometry" />
        </mxCell>
        <mxCell id="g5zG8YYZYsl8CWrzyVVc-34" value="" style="shape=flexArrow;endArrow=classic;html=1;rounded=1;hachureGap=4;fontFamily=Architects Daughter;fontSource=https%3A%2F%2Ffonts.googleapis.com%2Fcss%3Ffamily%3DArchitects%2BDaughter;fontSize=16;targetPerimeterSpacing=0;fillColor=none;strokeColor=#009900;" parent="1" edge="1">
          <mxGeometry width="50" height="50" relative="1" as="geometry">
            <mxPoint x="260" y="1670" as="sourcePoint" />
            <mxPoint x="330" y="1670" as="targetPoint" />
          </mxGeometry>
        </mxCell>
        <mxCell id="g5zG8YYZYsl8CWrzyVVc-35" value="" style="shape=flexArrow;endArrow=classic;html=1;rounded=1;hachureGap=4;fontFamily=Architects Daughter;fontSource=https%3A%2F%2Ffonts.googleapis.com%2Fcss%3Ffamily%3DArchitects%2BDaughter;fontSize=16;targetPerimeterSpacing=0;fillColor=none;strokeColor=#009900;" parent="1" edge="1">
          <mxGeometry width="50" height="50" relative="1" as="geometry">
            <mxPoint x="260" y="1720" as="sourcePoint" />
            <mxPoint x="330" y="1720" as="targetPoint" />
          </mxGeometry>
        </mxCell>
        <mxCell id="g5zG8YYZYsl8CWrzyVVc-36" value="" style="shape=flexArrow;endArrow=classic;html=1;rounded=1;hachureGap=4;fontFamily=Architects Daughter;fontSource=https%3A%2F%2Ffonts.googleapis.com%2Fcss%3Ffamily%3DArchitects%2BDaughter;fontSize=16;targetPerimeterSpacing=0;fillColor=none;strokeColor=#009900;" parent="1" edge="1">
          <mxGeometry width="50" height="50" relative="1" as="geometry">
            <mxPoint x="260" y="1770" as="sourcePoint" />
            <mxPoint x="330" y="1770" as="targetPoint" />
          </mxGeometry>
        </mxCell>
        <mxCell id="g5zG8YYZYsl8CWrzyVVc-43" style="edgeStyle=orthogonalEdgeStyle;rounded=0;hachureGap=4;orthogonalLoop=1;jettySize=auto;html=1;entryX=0;entryY=0.5;entryDx=0;entryDy=0;fontFamily=Architects Daughter;fontSource=https%3A%2F%2Ffonts.googleapis.com%2Fcss%3Ffamily%3DArchitects%2BDaughter;fontSize=16;" parent="1" source="g5zG8YYZYsl8CWrzyVVc-37" target="g5zG8YYZYsl8CWrzyVVc-40" edge="1">
          <mxGeometry relative="1" as="geometry" />
        </mxCell>
        <mxCell id="g5zG8YYZYsl8CWrzyVVc-37" value="" style="rounded=1;whiteSpace=wrap;html=1;hachureGap=4;fontFamily=Architects Daughter;fontSource=https%3A%2F%2Ffonts.googleapis.com%2Fcss%3Ffamily%3DArchitects%2BDaughter;fontSize=20;" parent="1" vertex="1">
          <mxGeometry x="450" y="1650" width="60" height="40" as="geometry" />
        </mxCell>
        <mxCell id="g5zG8YYZYsl8CWrzyVVc-42" style="edgeStyle=orthogonalEdgeStyle;rounded=0;hachureGap=4;orthogonalLoop=1;jettySize=auto;html=1;entryX=0;entryY=0.5;entryDx=0;entryDy=0;fontFamily=Architects Daughter;fontSource=https%3A%2F%2Ffonts.googleapis.com%2Fcss%3Ffamily%3DArchitects%2BDaughter;fontSize=16;" parent="1" source="g5zG8YYZYsl8CWrzyVVc-39" target="g5zG8YYZYsl8CWrzyVVc-37" edge="1">
          <mxGeometry relative="1" as="geometry" />
        </mxCell>
        <mxCell id="g5zG8YYZYsl8CWrzyVVc-39" value="" style="rounded=1;whiteSpace=wrap;html=1;hachureGap=4;fontFamily=Architects Daughter;fontSource=https%3A%2F%2Ffonts.googleapis.com%2Fcss%3Ffamily%3DArchitects%2BDaughter;fontSize=20;" parent="1" vertex="1">
          <mxGeometry x="345" y="1650" width="60" height="40" as="geometry" />
        </mxCell>
        <mxCell id="g5zG8YYZYsl8CWrzyVVc-44" style="edgeStyle=orthogonalEdgeStyle;rounded=0;hachureGap=4;orthogonalLoop=1;jettySize=auto;html=1;entryX=0;entryY=0.5;entryDx=0;entryDy=0;fontFamily=Architects Daughter;fontSource=https%3A%2F%2Ffonts.googleapis.com%2Fcss%3Ffamily%3DArchitects%2BDaughter;fontSize=16;" parent="1" source="g5zG8YYZYsl8CWrzyVVc-40" target="g5zG8YYZYsl8CWrzyVVc-41" edge="1">
          <mxGeometry relative="1" as="geometry" />
        </mxCell>
        <mxCell id="g5zG8YYZYsl8CWrzyVVc-40" value="" style="rounded=1;whiteSpace=wrap;html=1;hachureGap=4;fontFamily=Architects Daughter;fontSource=https%3A%2F%2Ffonts.googleapis.com%2Fcss%3Ffamily%3DArchitects%2BDaughter;fontSize=20;" parent="1" vertex="1">
          <mxGeometry x="550" y="1650" width="60" height="40" as="geometry" />
        </mxCell>
        <mxCell id="g5zG8YYZYsl8CWrzyVVc-45" style="edgeStyle=orthogonalEdgeStyle;rounded=0;hachureGap=4;orthogonalLoop=1;jettySize=auto;html=1;fontFamily=Architects Daughter;fontSource=https%3A%2F%2Ffonts.googleapis.com%2Fcss%3Ffamily%3DArchitects%2BDaughter;fontSize=16;" parent="1" source="g5zG8YYZYsl8CWrzyVVc-41" edge="1">
          <mxGeometry relative="1" as="geometry">
            <mxPoint x="750" y="1670" as="targetPoint" />
          </mxGeometry>
        </mxCell>
        <mxCell id="g5zG8YYZYsl8CWrzyVVc-41" value="" style="rounded=1;whiteSpace=wrap;html=1;hachureGap=4;fontFamily=Architects Daughter;fontSource=https%3A%2F%2Ffonts.googleapis.com%2Fcss%3Ffamily%3DArchitects%2BDaughter;fontSize=20;" parent="1" vertex="1">
          <mxGeometry x="650" y="1650" width="60" height="40" as="geometry" />
        </mxCell>
        <mxCell id="g5zG8YYZYsl8CWrzyVVc-46" value="&lt;font face=&quot;Georgia&quot; color=&quot;#ff8000&quot;&gt;NULL&lt;/font&gt;" style="text;html=1;align=center;verticalAlign=middle;resizable=0;points=[];autosize=1;strokeColor=none;fillColor=none;fontSize=20;fontFamily=Architects Daughter;" parent="1" vertex="1">
          <mxGeometry x="755" y="1650" width="80" height="40" as="geometry" />
        </mxCell>
        <mxCell id="g5zG8YYZYsl8CWrzyVVc-48" value="&lt;font face=&quot;Georgia&quot; color=&quot;#ff8000&quot;&gt;NULL&lt;/font&gt;" style="text;html=1;align=center;verticalAlign=middle;resizable=0;points=[];autosize=1;strokeColor=none;fillColor=none;fontSize=20;fontFamily=Architects Daughter;" parent="1" vertex="1">
          <mxGeometry x="330" y="1700" width="80" height="40" as="geometry" />
        </mxCell>
        <mxCell id="g5zG8YYZYsl8CWrzyVVc-52" style="edgeStyle=orthogonalEdgeStyle;rounded=0;hachureGap=4;orthogonalLoop=1;jettySize=auto;html=1;fontFamily=Architects Daughter;fontSource=https%3A%2F%2Ffonts.googleapis.com%2Fcss%3Ffamily%3DArchitects%2BDaughter;fontSize=16;" parent="1" source="g5zG8YYZYsl8CWrzyVVc-49" edge="1">
          <mxGeometry relative="1" as="geometry">
            <mxPoint x="530" y="1770" as="targetPoint" />
          </mxGeometry>
        </mxCell>
        <mxCell id="g5zG8YYZYsl8CWrzyVVc-49" value="" style="rounded=1;whiteSpace=wrap;html=1;hachureGap=4;fontFamily=Architects Daughter;fontSource=https%3A%2F%2Ffonts.googleapis.com%2Fcss%3Ffamily%3DArchitects%2BDaughter;fontSize=20;" parent="1" vertex="1">
          <mxGeometry x="340" y="1750" width="110" height="40" as="geometry" />
        </mxCell>
        <mxCell id="g5zG8YYZYsl8CWrzyVVc-53" style="edgeStyle=orthogonalEdgeStyle;rounded=0;hachureGap=4;orthogonalLoop=1;jettySize=auto;html=1;fontFamily=Architects Daughter;fontSource=https%3A%2F%2Ffonts.googleapis.com%2Fcss%3Ffamily%3DArchitects%2BDaughter;fontSize=16;" parent="1" source="g5zG8YYZYsl8CWrzyVVc-51" edge="1">
          <mxGeometry relative="1" as="geometry">
            <mxPoint x="720" y="1770" as="targetPoint" />
          </mxGeometry>
        </mxCell>
        <mxCell id="g5zG8YYZYsl8CWrzyVVc-51" value="" style="rounded=1;whiteSpace=wrap;html=1;hachureGap=4;fontFamily=Architects Daughter;fontSource=https%3A%2F%2Ffonts.googleapis.com%2Fcss%3Ffamily%3DArchitects%2BDaughter;fontSize=20;" parent="1" vertex="1">
          <mxGeometry x="540" y="1750" width="110" height="40" as="geometry" />
        </mxCell>
        <mxCell id="g5zG8YYZYsl8CWrzyVVc-54" value="&lt;font face=&quot;Georgia&quot; color=&quot;#ff8000&quot;&gt;NULL&lt;/font&gt;" style="text;html=1;align=center;verticalAlign=middle;resizable=0;points=[];autosize=1;strokeColor=none;fillColor=none;fontSize=20;fontFamily=Architects Daughter;" parent="1" vertex="1">
          <mxGeometry x="725" y="1750" width="80" height="40" as="geometry" />
        </mxCell>
        <mxCell id="g5zG8YYZYsl8CWrzyVVc-55" value="" style="shape=flexArrow;endArrow=classic;html=1;rounded=1;hachureGap=4;fontFamily=Architects Daughter;fontSource=https%3A%2F%2Ffonts.googleapis.com%2Fcss%3Ffamily%3DArchitects%2BDaughter;fontSize=16;targetPerimeterSpacing=0;fillColor=none;strokeColor=#009900;" parent="1" edge="1">
          <mxGeometry width="50" height="50" relative="1" as="geometry">
            <mxPoint x="260" y="2100" as="sourcePoint" />
            <mxPoint x="330" y="2100" as="targetPoint" />
          </mxGeometry>
        </mxCell>
        <mxCell id="g5zG8YYZYsl8CWrzyVVc-58" style="edgeStyle=orthogonalEdgeStyle;rounded=0;hachureGap=4;orthogonalLoop=1;jettySize=auto;html=1;entryX=0;entryY=0.5;entryDx=0;entryDy=0;fontFamily=Architects Daughter;fontSource=https%3A%2F%2Ffonts.googleapis.com%2Fcss%3Ffamily%3DArchitects%2BDaughter;fontSize=16;" parent="1" source="g5zG8YYZYsl8CWrzyVVc-56" target="g5zG8YYZYsl8CWrzyVVc-57" edge="1">
          <mxGeometry relative="1" as="geometry" />
        </mxCell>
        <mxCell id="g5zG8YYZYsl8CWrzyVVc-56" value="" style="rounded=1;whiteSpace=wrap;html=1;hachureGap=4;fontFamily=Architects Daughter;fontSource=https%3A%2F%2Ffonts.googleapis.com%2Fcss%3Ffamily%3DArchitects%2BDaughter;fontSize=20;" parent="1" vertex="1">
          <mxGeometry x="335" y="2080" width="205" height="40" as="geometry" />
        </mxCell>
        <mxCell id="g5zG8YYZYsl8CWrzyVVc-59" style="edgeStyle=orthogonalEdgeStyle;rounded=0;hachureGap=4;orthogonalLoop=1;jettySize=auto;html=1;fontFamily=Architects Daughter;fontSource=https%3A%2F%2Ffonts.googleapis.com%2Fcss%3Ffamily%3DArchitects%2BDaughter;fontSize=16;" parent="1" source="g5zG8YYZYsl8CWrzyVVc-57" edge="1">
          <mxGeometry relative="1" as="geometry">
            <mxPoint x="890" y="2100" as="targetPoint" />
          </mxGeometry>
        </mxCell>
        <mxCell id="g5zG8YYZYsl8CWrzyVVc-57" value="" style="rounded=1;whiteSpace=wrap;html=1;hachureGap=4;fontFamily=Architects Daughter;fontSource=https%3A%2F%2Ffonts.googleapis.com%2Fcss%3Ffamily%3DArchitects%2BDaughter;fontSize=20;" parent="1" vertex="1">
          <mxGeometry x="635" y="2080" width="205" height="40" as="geometry" />
        </mxCell>
        <mxCell id="g5zG8YYZYsl8CWrzyVVc-60" value="&lt;font face=&quot;Georgia&quot; color=&quot;#ff8000&quot;&gt;NULL&lt;/font&gt;" style="text;html=1;align=center;verticalAlign=middle;resizable=0;points=[];autosize=1;strokeColor=none;fillColor=none;fontSize=20;fontFamily=Architects Daughter;" parent="1" vertex="1">
          <mxGeometry x="890" y="2080" width="80" height="40" as="geometry" />
        </mxCell>
        <mxCell id="832ZH2KlV7eEO04OyrAp-2" value="&lt;h2&gt;&lt;font color=&quot;#7ea6e0&quot;&gt;central cache&lt;/font&gt;&lt;/h2&gt;" style="text;html=1;align=center;verticalAlign=middle;resizable=0;points=[];autosize=1;strokeColor=none;fillColor=none;fontSize=20;fontFamily=Architects Daughter;" parent="1" vertex="1">
          <mxGeometry x="430" y="2170" width="220" height="100" as="geometry" />
        </mxCell>
        <mxCell id="832ZH2KlV7eEO04OyrAp-4" value="&lt;div style=&quot;text-align: left;&quot;&gt;&lt;span style=&quot;font-size: 14px; background-color: initial;&quot;&gt;&lt;font face=&quot;Georgia&quot; color=&quot;#ff8000&quot;&gt;cental cache 也是一个哈希桶结构, 他的哈希桶的映射关系跟 thread cache 是一样的。不同的是他的每个哈希桶位置挂的是SpanList链表结构&lt;/font&gt;&lt;/span&gt;&lt;/div&gt;&lt;font face=&quot;sqcwnll0Gh6DPCoFKeht&quot; color=&quot;#ff8000&quot; style=&quot;font-size: 14px;&quot;&gt;&lt;div style=&quot;text-align: left;&quot;&gt;&lt;span style=&quot;background-color: initial;&quot;&gt;不过每个映射桶下面的span中的大内存被按映射关系切成了一个个小内存块对象挂在 span的自由链表中。&lt;/span&gt;&lt;/div&gt;&lt;/font&gt;" style="text;html=1;align=center;verticalAlign=middle;resizable=0;points=[];autosize=1;strokeColor=none;fillColor=none;fontSize=20;fontFamily=Architects Daughter;" parent="1" vertex="1">
          <mxGeometry x="185" y="2250" width="880" height="50" as="geometry" />
        </mxCell>
        <mxCell id="832ZH2KlV7eEO04OyrAp-6" value="&lt;font color=&quot;#000000&quot;&gt;8Byte&lt;br&gt;&lt;br&gt;&lt;br&gt;16Byte&lt;br&gt;&lt;br&gt;&lt;br&gt;24Byte&lt;br&gt;&lt;br&gt;&lt;br&gt;&lt;br&gt;............&lt;br&gt;&lt;br&gt;&lt;br&gt;&lt;br&gt;&lt;br&gt;&lt;br&gt;256Byte&lt;br&gt;&lt;br&gt;&lt;/font&gt;" style="rounded=1;whiteSpace=wrap;html=1;hachureGap=4;fontFamily=Architects Daughter;fontSource=https%3A%2F%2Ffonts.googleapis.com%2Fcss%3Ffamily%3DArchitects%2BDaughter;fontSize=20;gradientColor=#7EA6E0;fillColor=#7EA6E0;" parent="1" vertex="1">
          <mxGeometry x="190" y="2341" width="85" height="530" as="geometry" />
        </mxCell>
        <mxCell id="832ZH2KlV7eEO04OyrAp-7" value="" style="shape=flexArrow;endArrow=classic;startArrow=classic;html=1;rounded=1;hachureGap=4;fontFamily=Architects Daughter;fontSource=https%3A%2F%2Ffonts.googleapis.com%2Fcss%3Ffamily%3DArchitects%2BDaughter;fontSize=16;strokeColor=#CC6600;" parent="1" edge="1">
          <mxGeometry width="100" height="100" relative="1" as="geometry">
            <mxPoint x="280" y="2400" as="sourcePoint" />
            <mxPoint x="370" y="2400" as="targetPoint" />
          </mxGeometry>
        </mxCell>
        <mxCell id="832ZH2KlV7eEO04OyrAp-9" value="&lt;font color=&quot;#000000&quot;&gt;span&lt;/font&gt;" style="rounded=1;whiteSpace=wrap;html=1;hachureGap=4;fontFamily=Architects Daughter;fontSource=https%3A%2F%2Ffonts.googleapis.com%2Fcss%3Ffamily%3DArchitects%2BDaughter;fontSize=20;strokeColor=default;gradientColor=#00994D;fillColor=#00994D;" parent="1" vertex="1">
          <mxGeometry x="370" y="2370" width="100" height="50" as="geometry" />
        </mxCell>
        <mxCell id="832ZH2KlV7eEO04OyrAp-10" value="&lt;font color=&quot;#000000&quot;&gt;span&lt;/font&gt;" style="rounded=1;whiteSpace=wrap;html=1;hachureGap=4;fontFamily=Architects Daughter;fontSource=https%3A%2F%2Ffonts.googleapis.com%2Fcss%3Ffamily%3DArchitects%2BDaughter;fontSize=20;strokeColor=default;gradientColor=#00994D;fillColor=#00994D;" parent="1" vertex="1">
          <mxGeometry x="560" y="2370" width="100" height="50" as="geometry" />
        </mxCell>
        <mxCell id="832ZH2KlV7eEO04OyrAp-11" value="&lt;font color=&quot;#000000&quot;&gt;span&lt;/font&gt;" style="rounded=1;whiteSpace=wrap;html=1;hachureGap=4;fontFamily=Architects Daughter;fontSource=https%3A%2F%2Ffonts.googleapis.com%2Fcss%3Ffamily%3DArchitects%2BDaughter;fontSize=20;strokeColor=default;gradientColor=#00994D;fillColor=#00994D;" parent="1" vertex="1">
          <mxGeometry x="750" y="2370" width="100" height="50" as="geometry" />
        </mxCell>
        <mxCell id="832ZH2KlV7eEO04OyrAp-12" value="" style="shape=flexArrow;endArrow=classic;startArrow=classic;html=1;rounded=0;hachureGap=4;fontFamily=Architects Daughter;fontSource=https%3A%2F%2Ffonts.googleapis.com%2Fcss%3Ffamily%3DArchitects%2BDaughter;fontSize=16;strokeColor=#CC6600;" parent="1" edge="1">
          <mxGeometry width="100" height="100" relative="1" as="geometry">
            <mxPoint x="470" y="2400" as="sourcePoint" />
            <mxPoint x="560" y="2400" as="targetPoint" />
          </mxGeometry>
        </mxCell>
        <mxCell id="832ZH2KlV7eEO04OyrAp-13" value="" style="shape=flexArrow;endArrow=classic;startArrow=classic;html=1;rounded=0;hachureGap=4;fontFamily=Architects Daughter;fontSource=https%3A%2F%2Ffonts.googleapis.com%2Fcss%3Ffamily%3DArchitects%2BDaughter;fontSize=16;strokeColor=#CC6600;" parent="1" edge="1">
          <mxGeometry width="100" height="100" relative="1" as="geometry">
            <mxPoint x="660" y="2400" as="sourcePoint" />
            <mxPoint x="750" y="2400" as="targetPoint" />
          </mxGeometry>
        </mxCell>
        <mxCell id="832ZH2KlV7eEO04OyrAp-14" value="" style="shape=flexArrow;endArrow=classic;startArrow=classic;html=1;rounded=0;hachureGap=4;fontFamily=Architects Daughter;fontSource=https%3A%2F%2Ffonts.googleapis.com%2Fcss%3Ffamily%3DArchitects%2BDaughter;fontSize=16;strokeColor=#CC6600;" parent="1" edge="1">
          <mxGeometry width="100" height="100" relative="1" as="geometry">
            <mxPoint x="855" y="2394.5" as="sourcePoint" />
            <mxPoint x="945" y="2394.5" as="targetPoint" />
          </mxGeometry>
        </mxCell>
        <mxCell id="832ZH2KlV7eEO04OyrAp-16" value="&lt;font face=&quot;Georgia&quot; color=&quot;#ff3333&quot;&gt;NULL&lt;/font&gt;" style="text;html=1;align=center;verticalAlign=middle;resizable=0;points=[];autosize=1;strokeColor=none;fillColor=none;fontSize=20;fontFamily=Architects Daughter;" parent="1" vertex="1">
          <mxGeometry x="940" y="2373" width="80" height="40" as="geometry" />
        </mxCell>
        <mxCell id="832ZH2KlV7eEO04OyrAp-23" style="edgeStyle=orthogonalEdgeStyle;rounded=0;hachureGap=4;orthogonalLoop=1;jettySize=auto;html=1;entryX=0;entryY=0.5;entryDx=0;entryDy=0;fontFamily=Architects Daughter;fontSource=https%3A%2F%2Ffonts.googleapis.com%2Fcss%3Ffamily%3DArchitects%2BDaughter;fontSize=16;" parent="1" source="832ZH2KlV7eEO04OyrAp-17" target="832ZH2KlV7eEO04OyrAp-18" edge="1">
          <mxGeometry relative="1" as="geometry" />
        </mxCell>
        <mxCell id="832ZH2KlV7eEO04OyrAp-17" value="8Byte" style="rounded=1;whiteSpace=wrap;html=1;hachureGap=4;fontFamily=Architects Daughter;fontSource=https%3A%2F%2Ffonts.googleapis.com%2Fcss%3Ffamily%3DArchitects%2BDaughter;fontSize=20;gradientColor=#663300;fillColor=#663300;" parent="1" vertex="1">
          <mxGeometry x="402.5" y="2550" width="70" height="40" as="geometry" />
        </mxCell>
        <mxCell id="832ZH2KlV7eEO04OyrAp-24" style="edgeStyle=orthogonalEdgeStyle;rounded=0;hachureGap=4;orthogonalLoop=1;jettySize=auto;html=1;fontFamily=Architects Daughter;fontSource=https%3A%2F%2Ffonts.googleapis.com%2Fcss%3Ffamily%3DArchitects%2BDaughter;fontSize=16;" parent="1" source="832ZH2KlV7eEO04OyrAp-18" edge="1">
          <mxGeometry relative="1" as="geometry">
            <mxPoint x="640" y="2570" as="targetPoint" />
          </mxGeometry>
        </mxCell>
        <mxCell id="832ZH2KlV7eEO04OyrAp-18" value="8Byte" style="rounded=1;whiteSpace=wrap;html=1;hachureGap=4;fontFamily=Architects Daughter;fontSource=https%3A%2F%2Ffonts.googleapis.com%2Fcss%3Ffamily%3DArchitects%2BDaughter;fontSize=20;gradientColor=#663300;fillColor=#663300;" parent="1" vertex="1">
          <mxGeometry x="530" y="2550" width="70" height="40" as="geometry" />
        </mxCell>
        <mxCell id="832ZH2KlV7eEO04OyrAp-25" style="edgeStyle=orthogonalEdgeStyle;rounded=0;hachureGap=4;orthogonalLoop=1;jettySize=auto;html=1;entryX=0;entryY=0.5;entryDx=0;entryDy=0;fontFamily=Architects Daughter;fontSource=https%3A%2F%2Ffonts.googleapis.com%2Fcss%3Ffamily%3DArchitects%2BDaughter;fontSize=16;" parent="1" source="832ZH2KlV7eEO04OyrAp-19" target="832ZH2KlV7eEO04OyrAp-20" edge="1">
          <mxGeometry relative="1" as="geometry" />
        </mxCell>
        <mxCell id="832ZH2KlV7eEO04OyrAp-19" value="8Byte" style="rounded=1;whiteSpace=wrap;html=1;hachureGap=4;fontFamily=Architects Daughter;fontSource=https%3A%2F%2Ffonts.googleapis.com%2Fcss%3Ffamily%3DArchitects%2BDaughter;fontSize=20;gradientColor=#663300;fillColor=#663300;" parent="1" vertex="1">
          <mxGeometry x="645" y="2550" width="70" height="40" as="geometry" />
        </mxCell>
        <mxCell id="832ZH2KlV7eEO04OyrAp-20" value="8Byte" style="rounded=1;whiteSpace=wrap;html=1;hachureGap=4;fontFamily=Architects Daughter;fontSource=https%3A%2F%2Ffonts.googleapis.com%2Fcss%3Ffamily%3DArchitects%2BDaughter;fontSize=20;gradientColor=#663300;fillColor=#663300;" parent="1" vertex="1">
          <mxGeometry x="770" y="2550" width="70" height="40" as="geometry" />
        </mxCell>
        <mxCell id="832ZH2KlV7eEO04OyrAp-29" style="edgeStyle=orthogonalEdgeStyle;rounded=0;hachureGap=4;orthogonalLoop=1;jettySize=auto;html=1;entryX=0;entryY=0.5;entryDx=0;entryDy=0;fontFamily=Architects Daughter;fontSource=https%3A%2F%2Ffonts.googleapis.com%2Fcss%3Ffamily%3DArchitects%2BDaughter;fontSize=16;" parent="1" source="832ZH2KlV7eEO04OyrAp-21" target="832ZH2KlV7eEO04OyrAp-22" edge="1">
          <mxGeometry relative="1" as="geometry" />
        </mxCell>
        <mxCell id="832ZH2KlV7eEO04OyrAp-21" value="8Byte" style="rounded=1;whiteSpace=wrap;html=1;hachureGap=4;fontFamily=Architects Daughter;fontSource=https%3A%2F%2Ffonts.googleapis.com%2Fcss%3Ffamily%3DArchitects%2BDaughter;fontSize=20;gradientColor=#663300;fillColor=#663300;" parent="1" vertex="1">
          <mxGeometry x="580" y="2490" width="70" height="40" as="geometry" />
        </mxCell>
        <mxCell id="832ZH2KlV7eEO04OyrAp-30" style="edgeStyle=orthogonalEdgeStyle;rounded=0;hachureGap=4;orthogonalLoop=1;jettySize=auto;html=1;fontFamily=Architects Daughter;fontSource=https%3A%2F%2Ffonts.googleapis.com%2Fcss%3Ffamily%3DArchitects%2BDaughter;fontSize=16;" parent="1" source="832ZH2KlV7eEO04OyrAp-22" edge="1">
          <mxGeometry relative="1" as="geometry">
            <mxPoint x="820" y="2510" as="targetPoint" />
          </mxGeometry>
        </mxCell>
        <mxCell id="832ZH2KlV7eEO04OyrAp-22" value="8Byte" style="rounded=1;whiteSpace=wrap;html=1;hachureGap=4;fontFamily=Architects Daughter;fontSource=https%3A%2F%2Ffonts.googleapis.com%2Fcss%3Ffamily%3DArchitects%2BDaughter;fontSize=20;gradientColor=#663300;fillColor=#663300;" parent="1" vertex="1">
          <mxGeometry x="705" y="2490" width="70" height="40" as="geometry" />
        </mxCell>
        <mxCell id="832ZH2KlV7eEO04OyrAp-32" value="&lt;font face=&quot;Georgia&quot; color=&quot;#ff3333&quot;&gt;NULL&lt;/font&gt;" style="text;html=1;align=center;verticalAlign=middle;resizable=0;points=[];autosize=1;strokeColor=none;fillColor=none;fontSize=20;fontFamily=Architects Daughter;" parent="1" vertex="1">
          <mxGeometry x="780" y="2460" width="80" height="40" as="geometry" />
        </mxCell>
        <mxCell id="832ZH2KlV7eEO04OyrAp-33" value="256 KB" style="rounded=1;whiteSpace=wrap;html=1;hachureGap=4;fontFamily=Architects Daughter;fontSource=https%3A%2F%2Ffonts.googleapis.com%2Fcss%3Ffamily%3DArchitects%2BDaughter;fontSize=20;gradientColor=#CC6600;fillColor=#CC6600;" parent="1" vertex="1">
          <mxGeometry x="315" y="2690" width="280" height="40" as="geometry" />
        </mxCell>
        <mxCell id="832ZH2KlV7eEO04OyrAp-34" value="256 KB" style="rounded=1;whiteSpace=wrap;html=1;hachureGap=4;fontFamily=Architects Daughter;fontSource=https%3A%2F%2Ffonts.googleapis.com%2Fcss%3Ffamily%3DArchitects%2BDaughter;fontSize=20;gradientColor=#CC6600;fillColor=#CC6600;" parent="1" vertex="1">
          <mxGeometry x="700" y="2690" width="280" height="40" as="geometry" />
        </mxCell>
        <mxCell id="832ZH2KlV7eEO04OyrAp-38" value="" style="shape=flexArrow;endArrow=classic;startArrow=classic;html=1;rounded=1;hachureGap=4;fontFamily=Architects Daughter;fontSource=https%3A%2F%2Ffonts.googleapis.com%2Fcss%3Ffamily%3DArchitects%2BDaughter;fontSize=16;strokeColor=#CC6600;" parent="1" edge="1">
          <mxGeometry width="100" height="100" relative="1" as="geometry">
            <mxPoint x="275" y="2790" as="sourcePoint" />
            <mxPoint x="365" y="2790" as="targetPoint" />
          </mxGeometry>
        </mxCell>
        <mxCell id="832ZH2KlV7eEO04OyrAp-43" style="edgeStyle=orthogonalEdgeStyle;rounded=0;hachureGap=4;orthogonalLoop=1;jettySize=auto;html=1;entryX=0.387;entryY=1.075;entryDx=0;entryDy=0;entryPerimeter=0;fontFamily=Architects Daughter;fontSource=https%3A%2F%2Ffonts.googleapis.com%2Fcss%3Ffamily%3DArchitects%2BDaughter;fontSize=16;" parent="1" source="832ZH2KlV7eEO04OyrAp-39" target="832ZH2KlV7eEO04OyrAp-33" edge="1">
          <mxGeometry relative="1" as="geometry" />
        </mxCell>
        <mxCell id="832ZH2KlV7eEO04OyrAp-44" style="edgeStyle=orthogonalEdgeStyle;rounded=0;hachureGap=4;orthogonalLoop=1;jettySize=auto;html=1;fontFamily=Architects Daughter;fontSource=https%3A%2F%2Ffonts.googleapis.com%2Fcss%3Ffamily%3DArchitects%2BDaughter;fontSize=16;" parent="1" source="832ZH2KlV7eEO04OyrAp-39" edge="1">
          <mxGeometry relative="1" as="geometry">
            <mxPoint x="520" y="2795" as="targetPoint" />
          </mxGeometry>
        </mxCell>
        <mxCell id="832ZH2KlV7eEO04OyrAp-39" value="&lt;font color=&quot;#000000&quot;&gt;span&lt;/font&gt;" style="rounded=1;whiteSpace=wrap;html=1;hachureGap=4;fontFamily=Architects Daughter;fontSource=https%3A%2F%2Ffonts.googleapis.com%2Fcss%3Ffamily%3DArchitects%2BDaughter;fontSize=20;strokeColor=default;gradientColor=#00994D;fillColor=#00994D;" parent="1" vertex="1">
          <mxGeometry x="372.5" y="2770" width="100" height="50" as="geometry" />
        </mxCell>
        <mxCell id="832ZH2KlV7eEO04OyrAp-46" style="edgeStyle=orthogonalEdgeStyle;rounded=0;hachureGap=4;orthogonalLoop=1;jettySize=auto;html=1;fontFamily=Architects Daughter;fontSource=https%3A%2F%2Ffonts.googleapis.com%2Fcss%3Ffamily%3DArchitects%2BDaughter;fontSize=16;entryX=0.563;entryY=-0.025;entryDx=0;entryDy=0;entryPerimeter=0;" parent="1" source="832ZH2KlV7eEO04OyrAp-45" edge="1" target="832ZH2KlV7eEO04OyrAp-48">
          <mxGeometry relative="1" as="geometry">
            <mxPoint x="570" y="2850" as="targetPoint" />
          </mxGeometry>
        </mxCell>
        <mxCell id="832ZH2KlV7eEO04OyrAp-49" style="edgeStyle=orthogonalEdgeStyle;rounded=0;hachureGap=4;orthogonalLoop=1;jettySize=auto;html=1;fontFamily=Architects Daughter;fontSource=https%3A%2F%2Ffonts.googleapis.com%2Fcss%3Ffamily%3DArchitects%2BDaughter;fontSize=16;" parent="1" source="832ZH2KlV7eEO04OyrAp-45" edge="1">
          <mxGeometry relative="1" as="geometry">
            <mxPoint x="660" y="2795" as="targetPoint" />
          </mxGeometry>
        </mxCell>
        <mxCell id="832ZH2KlV7eEO04OyrAp-45" value="&lt;font color=&quot;#000000&quot;&gt;span&lt;/font&gt;" style="rounded=1;whiteSpace=wrap;html=1;hachureGap=4;fontFamily=Architects Daughter;fontSource=https%3A%2F%2Ffonts.googleapis.com%2Fcss%3Ffamily%3DArchitects%2BDaughter;fontSize=20;strokeColor=default;gradientColor=#00994D;fillColor=#00994D;" parent="1" vertex="1">
          <mxGeometry x="520" y="2770" width="100" height="50" as="geometry" />
        </mxCell>
        <mxCell id="832ZH2KlV7eEO04OyrAp-48" value="&lt;font face=&quot;Georgia&quot; color=&quot;#ff3333&quot;&gt;NULL&lt;/font&gt;" style="text;html=1;align=center;verticalAlign=middle;resizable=0;points=[];autosize=1;strokeColor=none;fillColor=none;fontSize=20;fontFamily=Architects Daughter;" parent="1" vertex="1">
          <mxGeometry x="525" y="2871" width="80" height="40" as="geometry" />
        </mxCell>
        <mxCell id="832ZH2KlV7eEO04OyrAp-50" value="&lt;font face=&quot;Georgia&quot; color=&quot;#ff3333&quot;&gt;NULL&lt;/font&gt;" style="text;html=1;align=center;verticalAlign=middle;resizable=0;points=[];autosize=1;strokeColor=none;fillColor=none;fontSize=20;fontFamily=Architects Daughter;" parent="1" vertex="1">
          <mxGeometry x="655" y="2780" width="80" height="40" as="geometry" />
        </mxCell>
        <mxCell id="eSYcwo6YyWBUjuSrye-T-11" style="edgeStyle=orthogonalEdgeStyle;rounded=0;hachureGap=4;orthogonalLoop=1;jettySize=auto;html=1;entryX=-0.001;entryY=0.488;entryDx=0;entryDy=0;entryPerimeter=0;fontFamily=Architects Daughter;fontSource=https%3A%2F%2Ffonts.googleapis.com%2Fcss%3Ffamily%3DArchitects%2BDaughter;fontSize=16;" edge="1" parent="1" source="g5zG8YYZYsl8CWrzyVVc-9" target="g5zG8YYZYsl8CWrzyVVc-29">
          <mxGeometry relative="1" as="geometry" />
        </mxCell>
        <mxCell id="eSYcwo6YyWBUjuSrye-T-17" style="edgeStyle=orthogonalEdgeStyle;rounded=0;hachureGap=4;orthogonalLoop=1;jettySize=auto;html=1;fontFamily=Architects Daughter;fontSource=https%3A%2F%2Ffonts.googleapis.com%2Fcss%3Ffamily%3DArchitects%2BDaughter;fontSize=16;" edge="1" parent="1" source="832ZH2KlV7eEO04OyrAp-20">
          <mxGeometry relative="1" as="geometry">
            <mxPoint x="930" y="2570" as="targetPoint" />
          </mxGeometry>
        </mxCell>
        <mxCell id="eSYcwo6YyWBUjuSrye-T-19" value="&lt;span style=&quot;color: rgb(240, 240, 240); font-size: 20px; font-style: normal; font-variant-ligatures: normal; font-variant-caps: normal; font-weight: 400; letter-spacing: normal; orphans: 2; text-align: center; text-indent: 0px; text-transform: none; widows: 2; word-spacing: 0px; -webkit-text-stroke-width: 0px; background-color: rgb(42, 37, 47); text-decoration-thickness: initial; text-decoration-style: initial; text-decoration-color: initial; float: none; display: inline !important;&quot;&gt;&lt;font face=&quot;Georgia&quot;&gt;thread1&lt;/font&gt;&lt;/span&gt;" style="text;whiteSpace=wrap;html=1;fontSize=20;fontFamily=Architects Daughter;" vertex="1" parent="1">
          <mxGeometry x="735" y="910" width="100" height="50" as="geometry" />
        </mxCell>
        <mxCell id="eSYcwo6YyWBUjuSrye-T-21" value="" style="shape=flexArrow;endArrow=classic;html=1;rounded=0;hachureGap=4;fontFamily=Architects Daughter;fontSource=https%3A%2F%2Ffonts.googleapis.com%2Fcss%3Ffamily%3DArchitects%2BDaughter;fontSize=16;exitX=0.615;exitY=1.187;exitDx=0;exitDy=0;exitPerimeter=0;" edge="1" parent="1" source="832ZH2KlV7eEO04OyrAp-9">
          <mxGeometry width="50" height="50" relative="1" as="geometry">
            <mxPoint x="690" y="2370" as="sourcePoint" />
            <mxPoint x="430" y="2540" as="targetPoint" />
          </mxGeometry>
        </mxCell>
        <mxCell id="eSYcwo6YyWBUjuSrye-T-22" value="" style="shape=flexArrow;endArrow=classic;html=1;rounded=0;hachureGap=4;fontFamily=Architects Daughter;fontSource=https%3A%2F%2Ffonts.googleapis.com%2Fcss%3Ffamily%3DArchitects%2BDaughter;fontSize=16;" edge="1" parent="1">
          <mxGeometry width="50" height="50" relative="1" as="geometry">
            <mxPoint x="610" y="2420" as="sourcePoint" />
            <mxPoint x="610" y="2490" as="targetPoint" />
          </mxGeometry>
        </mxCell>
        <mxCell id="eSYcwo6YyWBUjuSrye-T-23" value="" style="shape=flexArrow;endArrow=classic;html=1;rounded=0;hachureGap=4;fontFamily=Architects Daughter;fontSource=https%3A%2F%2Ffonts.googleapis.com%2Fcss%3Ffamily%3DArchitects%2BDaughter;fontSize=16;" edge="1" parent="1">
          <mxGeometry width="50" height="50" relative="1" as="geometry">
            <mxPoint x="820" y="2420" as="sourcePoint" />
            <mxPoint x="820" y="2460" as="targetPoint" />
          </mxGeometry>
        </mxCell>
        <mxCell id="eSYcwo6YyWBUjuSrye-T-24" value="" style="shape=flexArrow;endArrow=classic;startArrow=classic;html=1;rounded=0;hachureGap=4;fontFamily=Architects Daughter;fontSource=https%3A%2F%2Ffonts.googleapis.com%2Fcss%3Ffamily%3DArchitects%2BDaughter;fontSize=16;strokeColor=#CC6600;" edge="1" parent="1">
          <mxGeometry width="100" height="100" relative="1" as="geometry">
            <mxPoint x="605" y="2709.41" as="sourcePoint" />
            <mxPoint x="695" y="2709.41" as="targetPoint" />
          </mxGeometry>
        </mxCell>
        <mxCell id="eSYcwo6YyWBUjuSrye-T-25" value="" style="shape=flexArrow;endArrow=classic;startArrow=classic;html=1;rounded=0;hachureGap=4;fontFamily=Architects Daughter;fontSource=https%3A%2F%2Ffonts.googleapis.com%2Fcss%3Ffamily%3DArchitects%2BDaughter;fontSize=16;strokeColor=#CC6600;" edge="1" parent="1">
          <mxGeometry width="100" height="100" relative="1" as="geometry">
            <mxPoint x="985" y="2709.41" as="sourcePoint" />
            <mxPoint x="1075" y="2709.41" as="targetPoint" />
          </mxGeometry>
        </mxCell>
        <mxCell id="eSYcwo6YyWBUjuSrye-T-26" value="&lt;font face=&quot;Georgia&quot; color=&quot;#ff3333&quot;&gt;NULL&lt;/font&gt;" style="text;html=1;align=center;verticalAlign=middle;resizable=0;points=[];autosize=1;strokeColor=none;fillColor=none;fontSize=20;fontFamily=Architects Daughter;" vertex="1" parent="1">
          <mxGeometry x="1090" y="2690" width="80" height="40" as="geometry" />
        </mxCell>
      </root>
    </mxGraphModel>
  </diagram>
</mxfile>
